<svg width="839" height="586" viewBox="0 0 839 586" fill="none" xmlns="http://www.w3.org/2000/svg">
<path d="M581.114 451.286V581.286H255.415C218.306 581.286 188.114 552.126 188.114 516.286C188.114 480.446 218.306 451.286 255.415 451.286H581.114Z" fill="#F2F2F2"/>
<path d="M589.114 580.286C589.114 581.612 588.587 582.883 587.649 583.821C586.712 584.759 585.44 585.285 584.114 585.286H249.614C231.447 585.286 214.024 578.069 201.177 565.223C188.331 552.377 181.114 534.953 181.114 516.786C181.114 498.619 188.331 481.195 201.177 468.349C214.024 455.503 231.447 448.286 249.614 448.286H584.114C585.44 448.286 586.712 448.813 587.65 449.75C588.587 450.688 589.114 451.96 589.114 453.286C589.114 454.612 588.587 455.884 587.65 456.822C586.712 457.759 585.44 458.286 584.114 458.286H249.614C234.099 458.286 219.219 464.449 208.248 475.42C197.278 486.391 191.114 501.271 191.114 516.786C191.114 532.301 197.278 547.181 208.248 558.152C219.219 569.123 234.099 575.286 249.614 575.286H584.114C585.44 575.287 586.712 575.813 587.649 576.751C588.587 577.689 589.114 578.96 589.114 580.286Z" fill="#0369a1"/>
<path d="M581.114 481.286H231.114C230.849 481.286 230.595 481.181 230.407 480.993C230.22 480.806 230.114 480.551 230.114 480.286C230.114 480.021 230.22 479.766 230.407 479.579C230.595 479.391 230.849 479.286 231.114 479.286H581.114C581.379 479.286 581.634 479.391 581.821 479.579C582.009 479.766 582.114 480.021 582.114 480.286C582.114 480.551 582.009 480.806 581.821 480.993C581.634 481.181 581.379 481.286 581.114 481.286Z" fill="#3F3D56"/>
<path d="M581.114 505.286H231.114C230.849 505.286 230.595 505.181 230.407 504.993C230.22 504.806 230.114 504.551 230.114 504.286C230.114 504.021 230.22 503.766 230.407 503.579C230.595 503.391 230.849 503.286 231.114 503.286H581.114C581.379 503.286 581.634 503.391 581.821 503.579C582.009 503.766 582.114 504.021 582.114 504.286C582.114 504.551 582.009 504.806 581.821 504.993C581.634 505.181 581.379 505.286 581.114 505.286Z" fill="#3F3D56"/>
<path d="M581.114 529.286H231.114C230.849 529.286 230.595 529.181 230.407 528.993C230.22 528.806 230.114 528.551 230.114 528.286C230.114 528.021 230.22 527.766 230.407 527.579C230.595 527.391 230.849 527.286 231.114 527.286H581.114C581.379 527.286 581.634 527.391 581.821 527.579C582.009 527.766 582.114 528.021 582.114 528.286C582.114 528.551 582.009 528.806 581.821 528.993C581.634 529.181 581.379 529.286 581.114 529.286Z" fill="#3F3D56"/>
<path d="M581.114 553.286H231.114C230.849 553.286 230.595 553.181 230.407 552.993C230.22 552.806 230.114 552.551 230.114 552.286C230.114 552.021 230.22 551.766 230.407 551.579C230.595 551.391 230.849 551.286 231.114 551.286H581.114C581.379 551.286 581.634 551.391 581.821 551.579C582.009 551.766 582.114 552.021 582.114 552.286C582.114 552.551 582.009 552.806 581.821 552.993C581.634 553.181 581.379 553.286 581.114 553.286Z" fill="#3F3D56"/>
<path d="M832.832 475.757L751.267 576.985L497.652 372.635C468.756 349.352 463.541 307.703 486.028 279.795C508.515 251.887 550.32 248.124 579.216 271.407L832.832 475.757Z" fill="#F2F2F2"/>
<path d="M758.124 581.226C757.291 582.258 756.083 582.918 754.765 583.059C753.447 583.201 752.126 582.814 751.093 581.982L490.625 372.11C476.478 360.711 467.439 344.16 465.496 326.097C463.553 308.034 468.865 289.939 480.263 275.792C491.662 261.646 508.213 252.606 526.276 250.663C544.34 248.72 562.435 254.032 576.581 265.431L837.05 475.303C837.562 475.715 837.987 476.224 838.302 476.8C838.617 477.376 838.816 478.009 838.886 478.662C838.957 479.315 838.898 479.976 838.713 480.606C838.528 481.236 838.221 481.824 837.808 482.335C837.396 482.847 836.887 483.272 836.311 483.587C835.734 483.902 835.101 484.1 834.448 484.17C833.795 484.24 833.135 484.181 832.505 483.995C831.874 483.81 831.287 483.502 830.776 483.09L570.307 273.218C564.325 268.394 557.452 264.796 550.08 262.629C542.707 260.463 534.98 259.77 527.34 260.59C519.699 261.411 512.295 263.728 505.551 267.411C498.806 271.093 492.854 276.068 488.032 282.052C483.211 288.035 479.616 294.91 477.452 302.284C475.288 309.657 474.598 317.384 475.422 325.024C476.245 332.664 478.566 340.067 482.251 346.81C485.936 353.553 490.913 359.504 496.899 364.323L757.367 574.196C758.4 575.028 759.059 576.236 759.201 577.554C759.343 578.872 758.955 580.193 758.124 581.226Z" fill="#0369a1"/>
<path d="M814.009 499.117L541.471 279.52C541.369 279.438 541.284 279.336 541.221 279.221C541.158 279.105 541.118 278.979 541.104 278.848C541.09 278.718 541.102 278.586 541.139 278.46C541.176 278.334 541.237 278.216 541.32 278.114C541.402 278.012 541.504 277.927 541.619 277.864C541.734 277.801 541.861 277.761 541.991 277.747C542.122 277.733 542.254 277.745 542.38 277.782C542.506 277.819 542.623 277.88 542.726 277.963L815.264 497.56C815.366 497.642 815.451 497.744 815.515 497.859C815.578 497.975 815.617 498.101 815.632 498.232C815.646 498.362 815.634 498.495 815.597 498.621C815.56 498.747 815.498 498.865 815.416 498.967C815.334 499.069 815.232 499.154 815.116 499.217C815.001 499.28 814.874 499.32 814.744 499.334C814.613 499.348 814.481 499.336 814.355 499.299C814.229 499.262 814.111 499.2 814.009 499.117Z" fill="#3F3D56"/>
<path d="M798.951 517.806L526.413 298.208C526.207 298.042 526.075 297.8 526.047 297.537C526.019 297.273 526.096 297.009 526.263 296.803C526.429 296.597 526.67 296.465 526.934 296.436C527.197 296.408 527.461 296.485 527.668 296.651L800.206 516.248C800.308 516.331 800.393 516.432 800.456 516.548C800.52 516.663 800.559 516.79 800.573 516.92C800.588 517.051 800.576 517.183 800.539 517.309C800.502 517.435 800.44 517.553 800.358 517.655C800.275 517.758 800.174 517.843 800.058 517.906C799.943 517.969 799.816 518.008 799.686 518.022C799.555 518.036 799.423 518.024 799.297 517.987C799.171 517.95 799.053 517.888 798.951 517.806Z" fill="#3F3D56"/>
<path d="M783.893 536.494L511.355 316.897C511.148 316.73 511.016 316.489 510.988 316.225C510.959 315.961 511.037 315.697 511.203 315.491C511.37 315.284 511.611 315.152 511.875 315.124C512.139 315.095 512.403 315.173 512.61 315.339L785.148 534.937C785.25 535.019 785.335 535.121 785.398 535.236C785.461 535.351 785.5 535.478 785.514 535.608C785.528 535.739 785.517 535.871 785.48 535.997C785.443 536.123 785.381 536.24 785.299 536.343C785.216 536.445 785.115 536.53 784.999 536.593C784.884 536.656 784.758 536.695 784.627 536.71C784.497 536.724 784.364 536.712 784.238 536.675C784.112 536.638 783.995 536.576 783.893 536.494Z" fill="#3F3D56"/>
<path d="M768.835 555.182L496.297 335.585C496.194 335.503 496.109 335.401 496.046 335.286C495.983 335.17 495.944 335.044 495.93 334.913C495.916 334.783 495.927 334.651 495.964 334.525C496.001 334.399 496.063 334.281 496.145 334.179C496.228 334.077 496.329 333.992 496.445 333.929C496.56 333.866 496.686 333.826 496.817 333.812C496.948 333.798 497.08 333.81 497.206 333.847C497.332 333.884 497.449 333.945 497.551 334.028L770.089 553.625C770.192 553.707 770.277 553.809 770.34 553.924C770.403 554.04 770.443 554.166 770.457 554.297C770.471 554.427 770.46 554.56 770.423 554.686C770.386 554.812 770.324 554.93 770.242 555.032C770.159 555.134 770.057 555.219 769.942 555.282C769.827 555.345 769.7 555.385 769.569 555.399C769.439 555.413 769.307 555.401 769.18 555.364C769.054 555.326 768.937 555.265 768.835 555.182Z" fill="#3F3D56"/>
<path d="M379.892 388.705C336.444 419.877 287.531 442.391 236.314 454.793C233.275 455.545 230.155 455.438 227.332 454.485C224.51 453.532 222.107 451.775 220.418 449.427L149.039 351.183C146.705 347.961 145.868 343.855 146.712 339.764C147.557 335.673 150.014 331.932 153.544 329.362L393.399 155.097C396.934 152.534 401.251 151.353 405.403 151.814C409.555 152.275 413.202 154.34 415.544 157.555L486.922 255.8C488.634 258.132 489.563 260.96 489.597 263.939C489.631 266.918 488.768 269.919 487.114 272.576C459.492 317.454 422.965 357.016 379.892 388.705Z" fill="#0369a1"/>
<path d="M322.037 309.142C320.259 310.435 318.265 311.391 316.169 311.955L72.8536 377.038C69.716 377.877 66.4738 377.803 63.5453 376.824C60.6168 375.846 58.1361 374.008 56.4232 371.548C54.7102 369.087 53.8435 366.118 53.9348 363.021C54.026 359.925 55.071 356.843 56.9352 354.175L199.378 150.247C201.669 146.958 205.061 144.504 208.901 143.357L444.316 72.7542C447.421 71.8232 450.66 71.7923 453.619 72.6655C456.578 73.5387 459.122 75.2764 460.925 77.656C462.729 80.0357 463.711 82.9493 463.744 86.0239C463.778 89.0986 462.862 92.1947 461.114 94.9158L326.571 304.362C325.381 306.208 323.839 307.834 322.037 309.142Z" fill="#0369a1"/>
<path d="M255.528 451.049C265.341 443.92 268.03 430.894 261.536 421.954C255.041 413.015 241.821 411.548 232.009 418.677C222.196 425.806 219.507 438.832 226.002 447.771C232.496 456.711 245.716 458.178 255.528 451.049Z" fill="#2D333A"/>
<path opacity="0.2" d="M454.221 84.0673L319.677 293.513C318.628 295.146 317.268 296.585 315.68 297.745C314.091 298.904 312.306 299.761 310.431 300.262L67.1167 365.348C64.0769 366.187 60.9248 366.039 58.1583 364.927C58.2822 366.862 58.8322 368.711 59.7717 370.354C60.7112 371.997 62.0187 373.395 63.6075 374.455C65.1962 375.515 67.0298 376.214 68.9865 376.504C70.9432 376.794 72.9783 376.669 74.9566 376.138L318.271 311.053C320.146 310.551 321.931 309.695 323.52 308.536C325.108 307.376 326.468 305.937 327.517 304.304L462.061 94.858C463.165 93.1412 463.902 91.2476 464.223 89.3022C464.543 87.3568 464.439 85.4039 463.919 83.5724C463.398 81.7409 462.472 80.0723 461.202 78.677C459.932 77.2817 458.347 76.1912 456.551 75.4776C456.751 78.4292 455.932 81.4489 454.221 84.0673Z" fill="black"/>
<path d="M245.219 433.717C246.004 433.147 246.551 432.315 246.739 431.406C246.926 430.496 246.74 429.584 246.22 428.868L180.636 338.6L254.749 235.231C255.542 234.671 256.101 233.847 256.303 232.939C256.504 232.031 256.332 231.114 255.824 230.39C255.316 229.666 254.513 229.194 253.593 229.078C252.673 228.962 251.711 229.212 250.917 229.772L176.805 333.141C176.007 333.695 175.319 334.392 174.783 335.189C174.247 335.985 173.875 336.866 173.688 337.776C173.49 338.684 173.479 339.606 173.655 340.487C173.832 341.367 174.192 342.189 174.714 342.903L240.298 433.171C240.818 433.886 241.628 434.346 242.551 434.448C243.474 434.551 244.433 434.288 245.219 433.717Z" fill="#2D333A"/>
</svg>